# xmcd
#
# Track frame offsets:
#	150
#	13990
#	30066
#	47035
#	59674
#	76379
#	92204
#	110498
#	129583
#	149811
#
# Disc length: 2219 seconds
#
# Revision: 0
# Processed by: cddbd v1.5.2PL0 Copyright (c) Steve Scherf et al.
# Submitted via: EasyCDDAExtractor 2010.4.0.0
#
DISCID=8b08a90a
DTITLE=Steve  Skinner - Stay A Little While
DYEAR=2010
DGENRE=Blues
TTITLE0=01 I Got My Eye On You
TTITLE1=02 Do You Feel Like I Do
TTITLE2=03 Mad Dogs And Poms
TTITLE3=04 Its Not The Same Babe
TTITLE4=05 Boom Boom Boom
TTITLE5=06 Hello Jacqui
TTITLE6=07 Stay A Little While
TTITLE7=08 Liquor And Poker
TTITLE8=09 Let Tomorrow Take Tonight 
TTITLE9=10 Too Many People
EXTD=
EXTT0=
EXTT1=
EXTT2=
EXTT3=
EXTT4=
EXTT5=
EXTT6=
EXTT7=
EXTT8=
EXTT9=
PLAYORDER=
